<?xml version="1.0" standalone="no"?>
<!DOCTYPE svg PUBLIC "-//W3C//DTD SVG 20010904//EN"
 "http://www.w3.org/TR/2001/REC-SVG-20010904/DTD/svg10.dtd">
<svg version="1.0" xmlns="http://www.w3.org/2000/svg"
 width="512.000000pt" height="512.000000pt" viewBox="0 0 512.000000 512.000000"
 preserveAspectRatio="xMidYMid meet">
<metadata>
Created by potrace 1.14, written by Peter Selinger 2001-2017
</metadata>
<g transform="translate(0.000000,512.000000) scale(0.100000,-0.100000)"
fill="#000000" stroke="none">
<path d="M1995 5113 c-163 -31 -291 -99 -374 -197 -14 -15 -30 -33 -36 -40 -6
-6 -28 -41 -49 -79 -37 -65 -58 -139 -161 -555 -13 -51 -26 -96 -29 -99 -3 -4
-61 -5 -129 -4 -67 2 -210 3 -317 4 -184 0 -199 -1 -276 -26 -265 -87 -439
-332 -429 -604 5 -109 17 -156 67 -257 42 -84 82 -134 156 -194 129 -105 242
-140 470 -145 77 -1 144 -5 147 -9 3 -3 -4 -43 -16 -89 -11 -46 -25 -100 -29
-119 -15 -66 -88 -355 -93 -370 -3 -8 -8 -26 -11 -40 l-5 -25 -183 -1 c-169
-1 -189 -3 -264 -27 -389 -127 -550 -577 -327 -917 48 -74 134 -154 212 -198
67 -37 175 -72 224 -72 35 0 36 5 -18 -215 -41 -169 -45 -252 -20 -360 49
-212 214 -386 425 -450 30 -9 96 -18 146 -21 210 -10 411 92 533 270 56 81 71
125 152 449 39 155 75 284 81 288 5 3 67 5 136 4 70 -2 218 -4 330 -6 111 -2
202 -5 202 -8 0 -3 -14 -60 -31 -126 -16 -66 -32 -129 -35 -140 -2 -11 -6 -58
-8 -105 -6 -167 56 -322 179 -446 125 -126 249 -178 430 -178 90 -1 123 3 183
23 168 55 305 176 376 332 14 30 52 164 86 299 34 135 66 262 71 283 l10 38
298 -4 c341 -6 386 0 517 62 168 80 305 264 332 445 42 292 -111 564 -379 671
-86 34 -140 42 -278 45 -141 2 -168 4 -176 11 -4 5 33 161 129 544 2 6 6 24
10 40 4 17 10 37 12 45 3 13 28 15 170 14 184 -2 250 8 350 55 152 71 273 204
323 354 30 90 34 110 33 209 0 203 -107 394 -282 507 -66 43 -199 91 -251 91
-37 0 -37 0 11 190 36 142 39 165 36 265 -4 148 -37 242 -125 355 -121 155
-282 234 -481 235 -167 0 -302 -54 -421 -170 -109 -106 -166 -222 -205 -415
-3 -14 -8 -34 -11 -45 -4 -11 -7 -22 -8 -25 0 -3 -20 -85 -45 -182 l-44 -177
-336 6 c-184 3 -336 6 -338 8 -2 2 13 70 33 151 59 237 53 349 -28 513 -99
202 -292 327 -517 335 -47 2 -94 2 -105 -1z m981 -2236 c2 -2 -10 -57 -27
-123 -16 -65 -32 -128 -34 -139 -3 -10 -25 -99 -50 -196 -25 -98 -45 -181 -45
-184 0 -7 -668 0 -675 7 -2 1 7 46 20 98 39 158 92 370 115 463 l23 89 335 -6
c184 -3 337 -7 338 -9z"/>
</g>
</svg>
